HIERARCHY
ROOT Hips
{
 OFFSET 0.000000 0.000000 0.000000
 CHANNELS 6 Xposition Yposition Zposition Yrotation Xrotation Zrotation
 JOINT Chest
 {
  OFFSET 0.000000 10.354800 0.006500
  CHANNELS 3 Yrotation Xrotation Zrotation
  JOINT Chest2
  {
   OFFSET 0.000000 10.435800 -0.013200
   CHANNELS 3 Yrotation Xrotation Zrotation
   JOINT Chest3
   {
    OFFSET 0.000000 10.393700 0.000000
    CHANNELS 3 Yrotation Xrotation Zrotation
    JOINT Chest4
    {
     OFFSET 0.000000 10.383100 0.000000
     CHANNELS 3 Yrotation Xrotation Zrotation
     JOINT Neck
     {
      OFFSET 0.000000 15.694000 0.000000
      CHANNELS 3 Yrotation Xrotation Zrotation
      JOINT Head
      {
       OFFSET 0.000000 9.711000 -0.028000
       CHANNELS 3 Yrotation Xrotation Zrotation
       End Site
       {
        OFFSET 0.000000 18.578700 -0.014800
       }
      }
     }
     JOINT RightCollar
     {
      OFFSET -3.157200 10.367500 0.000000
      CHANNELS 3 Yrotation Xrotation Zrotation
      JOINT RightShoulder
      {
       OFFSET -14.482500 0.000000 0.000000
       CHANNELS 3 Yrotation Xrotation Zrotation
       JOINT RightElbow
       {
        OFFSET 0.000000 -31.707800 0.000000
        CHANNELS 3 Yrotation Xrotation Zrotation
        JOINT RightWrist
        {
         OFFSET 0.000000 -25.659300 0.000000
         CHANNELS 3 Yrotation Xrotation Zrotation
         End Site
         {
          OFFSET 0.000000 -18.994300 0.000000
         }
        }
       }
      }
     }
     JOINT LeftCollar
     {
      OFFSET 3.157200 10.367500 0.000000
      CHANNELS 3 Yrotation Xrotation Zrotation
      JOINT LeftShoulder
      {
       OFFSET 14.482500 0.000000 0.000000
       CHANNELS 3 Yrotation Xrotation Zrotation
       JOINT LeftElbow
       {
        OFFSET 0.000000 -31.707800 0.000000
        CHANNELS 3 Yrotation Xrotation Zrotation
        JOINT LeftWrist
        {
         OFFSET 0.000000 -25.659300 0.000000
         CHANNELS 3 Yrotation Xrotation Zrotation
         End Site
         {
          OFFSET 0.000000 -18.994300 0.000000
         }
        }
       }
      }
     }
    }
   }
  }
 }
 JOINT RightHip
 {
  OFFSET -8.365600 -0.032100 -0.003200
  CHANNELS 3 Yrotation Xrotation Zrotation
  JOINT RightKnee
  {
   OFFSET 0.000000 -43.980000 0.003100
   CHANNELS 3 Yrotation Xrotation Zrotation
   JOINT RightAnkle
   {
    OFFSET 0.000000 -42.882800 0.005200
    CHANNELS 3 Yrotation Xrotation Zrotation
    JOINT RightToe
    {
     OFFSET 0.000000 -4.915500 10.826300
     CHANNELS 3 Yrotation Xrotation Zrotation
     End Site
     {
      OFFSET 0.000000 -1.517500 6.175900
     }
    }
   }
  }
 }
 JOINT LeftHip
 {
  OFFSET 8.365600 -0.032100 -0.003200
  CHANNELS 3 Yrotation Xrotation Zrotation
  JOINT LeftKnee
  {
   OFFSET 0.000000 -43.980000 0.003100
   CHANNELS 3 Yrotation Xrotation Zrotation
   JOINT LeftAnkle
   {
    OFFSET 0.000000 -42.882800 0.005200
    CHANNELS 3 Yrotation Xrotation Zrotation
    JOINT LeftToe
    {
     OFFSET 0.000000 -4.915500 10.826300
     CHANNELS 3 Yrotation Xrotation Zrotation
     End Site
     {
      OFFSET 0.000000 -1.517500 6.175900
     }
    }
   }
  }
 }
}
MOTION
Frames: 5
Frame Time: 0.008333
-0.389521 126.575730 40.254044 174.427726 -21.125914 -2.444864 0.946110 15.370898 3.751395 0.044224 1.479334 0.340384 0.094668 2.454891 0.585087 0.759144 13.652592 3.244738 -2.717433 19.600073 -1.470212 -2.581387 -4.940328 -0.949800 5.276243 3.877301 -5.502769 27.494688 -22.049107 -19.743915 -61.246884 -59.602451 95.656899 -21.861825 -10.912098 -27.797643 -0.689713 7.697709 0.009630 6.415706 2.331013 -2.404815 78.170554 -56.149904 -122.396819 27.055674 -5.133585 41.798651 9.215369 -60.972514 -6.076835 -98.190377 77.973309 -91.669489 3.696404 6.228079 -16.824833 -0.022788 -0.000601 -0.010346 -15.425813 -61.003024 -1.248458 110.388466 84.835381 103.762065 -8.214519 -22.232033 0.957287 0.017014 -0.082957 0.007714
-0.391855 126.573235 40.254866 174.461313 -21.088090 -2.441582 0.906028 15.347205 3.729287 0.040523 1.492346 0.333937 0.075693 2.483939 0.569703 0.769819 13.614753 3.254965 -2.765998 19.543518 -1.502713 -2.568081 -5.047103 -0.955492 5.256570 3.846724 -5.540438 27.431086 -22.028029 -19.671005 -61.219337 -59.542567 95.617182 -21.893668 -10.905176 -27.732537 -0.719293 7.678994 0.008439 6.376435 2.339394 -2.428212 78.080536 -56.099386 -122.300555 27.063748 -5.173903 41.906829 9.198110 -61.007836 -6.118474 -98.255116 77.985788 -91.729644 3.727964 6.220905 -16.845928 -0.014777 -0.004894 -0.006709 -15.492013 -61.037172 -1.237486 109.374199 84.792151 102.736070 -8.268607 -21.874891 1.047216 0.018579 -0.068295 0.008426
-0.394470 126.571548 40.253581 174.488665 -21.064788 -2.434827 0.873196 15.337398 3.706239 0.039414 1.504845 0.327433 0.075433 2.473077 0.574396 0.741892 13.635860 3.234197 -2.757647 19.491118 -1.502368 -2.572227 -5.128206 -0.958240 5.272877 3.807538 -5.556978 27.395532 -22.024668 -19.627830 -61.172321 -59.454825 95.521995 -21.932027 -10.914441 -27.681575 -0.719846 7.646364 0.019699 6.326529 2.338888 -2.440375 77.983974 -56.043992 -122.208173 27.077178 -5.208677 42.007960 9.185208 -61.029653 -6.153331 -98.326131 77.991863 -91.799312 3.727772 6.215278 -16.851938 -0.013652 -0.004489 -0.006198 -15.510831 -61.065212 -1.256184 108.424012 84.784233 101.780405 -8.312330 -21.426491 1.147397 0.025588 -0.055206 0.011607
-0.397979 126.569819 40.252224 174.505156 -21.042683 -2.421070 0.853335 15.361427 3.665079 0.038942 1.483387 0.337031 0.074505 2.462935 0.578796 0.716942 13.658149 3.213138 -2.755372 19.435275 -1.502196 -2.561240 -5.178330 -0.952925 5.298741 3.770722 -5.566111 27.300372 -21.998341 -19.578823 -61.151083 -59.361423 95.504525 -21.975194 -10.941321 -27.662683 -0.697462 7.612878 0.037755 6.265491 2.331474 -2.443931 77.872837 -55.988956 -122.120044 27.092039 -5.237903 42.088116 9.193590 -61.050056 -6.197536 -98.374856 77.999018 -91.852424 3.764204 6.220485 -16.855758 -0.005316 -0.005522 -0.002413 -15.515154 -61.096043 -1.277222 107.524636 84.824835 100.867571 -8.328739 -20.916137 1.229132 0.026758 -0.034795 0.012142
-0.404703 126.569113 40.247394 174.509311 -21.039185 -2.385524 0.839640 15.380948 3.617131 0.039133 1.472857 0.341112 0.072022 2.476854 0.571571 0.704158 13.665879 3.202344 -2.750123 19.388557 -1.494006 -2.550330 -5.197498 -0.949257 5.318479 3.737797 -5.576661 27.213069 -21.974327 -19.530416 -61.133716 -59.255667 95.489516 -22.021620 -10.986019 -27.685927 -0.736182 7.596586 0.026938 6.268630 2.301324 -2.421543 77.755872 -55.941546 -122.038417 27.104668 -5.255320 42.137514 9.247637 -61.049809 -6.273673 -98.431708 78.002157 -91.910645 3.758248 6.214116 -16.859176 0.000601 -0.003299 0.000273 -15.471895 -61.108368 -1.348338 106.541891 84.886037 99.870616 -8.318284 -20.398774 1.261033 0.009516 -0.003439 0.004320
